<?xml version="1.0" encoding="UTF-8" standalone="no"?>
<!-- Created with Inkscape (http://www.inkscape.org/) -->
<svg
   xmlns:dc="http://purl.org/dc/elements/1.1/"
   xmlns:cc="http://creativecommons.org/ns#"
   xmlns:rdf="http://www.w3.org/1999/02/22-rdf-syntax-ns#"
   xmlns:svg="http://www.w3.org/2000/svg"
   xmlns="http://www.w3.org/2000/svg"
   xmlns:sodipodi="http://sodipodi.sourceforge.net/DTD/sodipodi-0.dtd"
   xmlns:inkscape="http://www.inkscape.org/namespaces/inkscape"
   width="640.17285"
   height="645.92999"
   id="svg10315"
   sodipodi:version="0.32"
   inkscape:version="0.46"
   version="1.0"
   sodipodi:docname="onlyhip.svg"
   inkscape:output_extension="org.inkscape.output.svg.inkscape">
  <defs
     id="defs10317">
    <inkscape:perspective
       sodipodi:type="inkscape:persp3d"
       inkscape:vp_x="0 : 526.18109 : 1"
       inkscape:vp_y="0 : 1000 : 0"
       inkscape:vp_z="744.09448 : 526.18109 : 1"
       inkscape:persp3d-origin="372.04724 : 350.78739 : 1"
       id="perspective10323" />
  </defs>
  <sodipodi:namedview
     id="base"
     pagecolor="#ffffff"
     bordercolor="#666666"
     borderopacity="1.0"
     gridtolerance="10000"
     guidetolerance="10"
     objecttolerance="10"
     inkscape:pageopacity="0.0"
     inkscape:pageshadow="2"
     inkscape:zoom="1"
     inkscape:cx="455.74361"
     inkscape:cy="374.41112"
     inkscape:document-units="px"
     inkscape:current-layer="layer1"
     showgrid="false"
     inkscape:window-width="1434"
     inkscape:window-height="846"
     inkscape:window-x="0"
     inkscape:window-y="0" />
  <metadata
     id="metadata10320">
    <rdf:RDF>
      <cc:Work
         rdf:about="">
        <dc:format>image/svg+xml</dc:format>
        <dc:type
           rdf:resource="http://purl.org/dc/dcmitype/StillImage" />
      </cc:Work>
    </rdf:RDF>
  </metadata>
  <g
     inkscape:label="Layer 1"
     inkscape:groupmode="layer"
     id="layer1"
     transform="translate(-25.627827,-17.611035)">
    <rect
       style="fill:none;stroke:#000000;stroke-width:1.19044197"
       x="112.25682"
       y="60.744919"
       width="539.2702"
       height="527.36578"
       id="rect14" />
    <rect
       style="fill:none;stroke:#000000;stroke-width:1.19044197"
       x="112.25682"
       y="60.744919"
       width="539.2702"
       height="527.36578"
       id="rect18" />
    <text
       style="font-size:23.8088398px;font-weight:bold;fill:#000000;font-family:Helvetica"
       x="644.38446"
       y="641.68066"
       font-size="20"
       font-weight="bold"
       id="text66" />
    <path
       style="fill:none;stroke:#000000;stroke-width:1.19044197"
       d="M 112.25685,60.744931 L 651.52709,60.744931"
       id="path202" />
    <path
       style="fill:none;stroke:#000000;stroke-width:1.19044197"
       d="M 112.25685,76.220671 L 112.25685,60.744931"
       id="path204" />
    <path
       style="fill:none;stroke:#000000;stroke-width:1.19044197"
       d="M 122.97083,69.078021 L 122.97083,60.744931"
       id="path206" />
    <path
       style="fill:none;stroke:#000000;stroke-width:1.19044197"
       d="M 133.68481,69.078021 L 133.68481,60.744931"
       id="path208" />
    <path
       style="fill:none;stroke:#000000;stroke-width:1.19044197"
       d="M 144.3988,69.078021 L 144.3988,60.744931"
       id="path210" />
    <path
       style="fill:none;stroke:#000000;stroke-width:1.19044197"
       d="M 155.11278,69.078021 L 155.11278,60.744931"
       id="path212" />
    <path
       style="fill:none;stroke:#000000;stroke-width:1.19044197"
       d="M 165.82676,76.220671 L 165.82676,60.744931"
       id="path214" />
    <path
       style="fill:none;stroke:#000000;stroke-width:1.19044197"
       d="M 176.54074,69.078021 L 176.54074,60.744931"
       id="path216" />
    <path
       style="fill:none;stroke:#000000;stroke-width:1.19044197"
       d="M 187.25472,69.078021 L 187.25472,60.744931"
       id="path218" />
    <path
       style="fill:none;stroke:#000000;stroke-width:1.19044197"
       d="M 197.96869,69.078021 L 197.96869,60.744931"
       id="path220" />
    <path
       style="fill:none;stroke:#000000;stroke-width:1.19044197"
       d="M 208.68267,69.078021 L 208.68267,60.744931"
       id="path222" />
    <path
       style="fill:none;stroke:#000000;stroke-width:1.19044197"
       d="M 219.39665,76.220671 L 219.39665,60.744931"
       id="path224" />
    <path
       style="fill:none;stroke:#000000;stroke-width:1.19044197"
       d="M 230.11063,69.078021 L 230.11063,60.744931"
       id="path226" />
    <path
       style="fill:none;stroke:#000000;stroke-width:1.19044197"
       d="M 242.01505,69.078021 L 242.01505,60.744931"
       id="path228" />
    <path
       style="fill:none;stroke:#000000;stroke-width:1.19044197"
       d="M 252.72903,69.078021 L 252.72903,60.744931"
       id="path230" />
    <path
       style="fill:none;stroke:#000000;stroke-width:1.19044197"
       d="M 263.443,69.078021 L 263.443,60.744931"
       id="path232" />
    <path
       style="fill:none;stroke:#000000;stroke-width:1.19044197"
       d="M 274.15698,76.220671 L 274.15698,60.744931"
       id="path234" />
    <path
       style="fill:none;stroke:#000000;stroke-width:1.19044197"
       d="M 284.87096,69.078021 L 284.87096,60.744931"
       id="path236" />
    <path
       style="fill:none;stroke:#000000;stroke-width:1.19044197"
       d="M 295.58494,69.078021 L 295.58494,60.744931"
       id="path238" />
    <path
       style="fill:none;stroke:#000000;stroke-width:1.19044197"
       d="M 306.29892,69.078021 L 306.29892,60.744931"
       id="path240" />
    <path
       style="fill:none;stroke:#000000;stroke-width:1.19044197"
       d="M 317.01289,69.078021 L 317.01289,60.744931"
       id="path242" />
    <path
       style="fill:none;stroke:#000000;stroke-width:1.19044197"
       d="M 327.72687,76.220671 L 327.72687,60.744931"
       id="path244" />
    <path
       style="fill:none;stroke:#000000;stroke-width:1.19044197"
       d="M 338.44085,69.078021 L 338.44085,60.744931"
       id="path246" />
    <path
       style="fill:none;stroke:#000000;stroke-width:1.19044197"
       d="M 349.15483,69.078021 L 349.15483,60.744931"
       id="path248" />
    <path
       style="fill:none;stroke:#000000;stroke-width:1.19044197"
       d="M 359.86881,69.078021 L 359.86881,60.744931"
       id="path250" />
    <path
       style="fill:none;stroke:#000000;stroke-width:1.19044197"
       d="M 370.58278,69.078021 L 370.58278,60.744931"
       id="path252" />
    <path
       style="fill:none;stroke:#000000;stroke-width:1.19044197"
       d="M 381.29676,76.220671 L 381.29676,60.744931"
       id="path254" />
    <path
       style="fill:none;stroke:#000000;stroke-width:1.19044197"
       d="M 393.20118,69.078021 L 393.20118,60.744931"
       id="path256" />
    <path
       style="fill:none;stroke:#000000;stroke-width:1.19044197"
       d="M 403.91516,69.078021 L 403.91516,60.744931"
       id="path258" />
    <path
       style="fill:none;stroke:#000000;stroke-width:1.19044197"
       d="M 414.62914,69.078021 L 414.62914,60.744931"
       id="path260" />
    <path
       style="fill:none;stroke:#000000;stroke-width:1.19044197"
       d="M 425.34312,69.078021 L 425.34312,60.744931"
       id="path262" />
    <path
       style="fill:none;stroke:#000000;stroke-width:1.19044197"
       d="M 436.05709,76.220671 L 436.05709,60.744931"
       id="path264" />
    <path
       style="fill:none;stroke:#000000;stroke-width:1.19044197"
       d="M 446.77107,69.078021 L 446.77107,60.744931"
       id="path266" />
    <path
       style="fill:none;stroke:#000000;stroke-width:1.19044197"
       d="M 457.48505,69.078021 L 457.48505,60.744931"
       id="path268" />
    <path
       style="fill:none;stroke:#000000;stroke-width:1.19044197"
       d="M 468.19903,69.078021 L 468.19903,60.744931"
       id="path270" />
    <path
       style="fill:none;stroke:#000000;stroke-width:1.19044197"
       d="M 478.91301,69.078021 L 478.91301,60.744931"
       id="path272" />
    <path
       style="fill:none;stroke:#000000;stroke-width:1.19044197"
       d="M 489.62698,76.220671 L 489.62698,60.744931"
       id="path274" />
    <path
       style="fill:none;stroke:#000000;stroke-width:1.19044197"
       d="M 500.34096,69.078021 L 500.34096,60.744931"
       id="path276" />
    <path
       style="fill:none;stroke:#000000;stroke-width:1.19044197"
       d="M 511.05494,69.078021 L 511.05494,60.744931"
       id="path278" />
    <path
       style="fill:none;stroke:#000000;stroke-width:1.19044197"
       d="M 521.76892,69.078021 L 521.76892,60.744931"
       id="path280" />
    <path
       style="fill:none;stroke:#000000;stroke-width:1.19044197"
       d="M 532.48289,69.078021 L 532.48289,60.744931"
       id="path282" />
    <path
       style="fill:none;stroke:#000000;stroke-width:1.19044197"
       d="M 544.38731,76.220671 L 544.38731,60.744931"
       id="path284" />
    <path
       style="fill:none;stroke:#000000;stroke-width:1.19044197"
       d="M 555.10129,69.078021 L 555.10129,60.744931"
       id="path286" />
    <path
       style="fill:none;stroke:#000000;stroke-width:1.19044197"
       d="M 565.81527,69.078021 L 565.81527,60.744931"
       id="path288" />
    <path
       style="fill:none;stroke:#000000;stroke-width:1.19044197"
       d="M 576.52925,69.078021 L 576.52925,60.744931"
       id="path290" />
    <path
       style="fill:none;stroke:#000000;stroke-width:1.19044197"
       d="M 587.24323,69.078021 L 587.24323,60.744931"
       id="path292" />
    <path
       style="fill:none;stroke:#000000;stroke-width:1.19044197"
       d="M 597.9572,76.220671 L 597.9572,60.744931"
       id="path294" />
    <path
       style="fill:none;stroke:#000000;stroke-width:1.19044197"
       d="M 608.67118,69.078021 L 608.67118,60.744931"
       id="path296" />
    <path
       style="fill:none;stroke:#000000;stroke-width:1.19044197"
       d="M 619.38516,69.078021 L 619.38516,60.744931"
       id="path298" />
    <path
       style="fill:none;stroke:#000000;stroke-width:1.19044197"
       d="M 630.09914,69.078021 L 630.09914,60.744931"
       id="path300" />
    <path
       style="fill:none;stroke:#000000;stroke-width:1.19044197"
       d="M 640.81312,69.078021 L 640.81312,60.744931"
       id="path302" />
    <path
       style="fill:none;stroke:#000000;stroke-width:1.19044197"
       d="M 651.52709,76.220671 L 651.52709,60.744931"
       id="path304" />
    <path
       style="fill:none;stroke:#000000;stroke-width:1.19044197"
       d="M 112.25685,588.11075 L 112.25685,60.744931"
       id="path306" />
    <path
       style="fill:none;stroke:#000000;stroke-width:1.19044197"
       d="M 127.7326,509.54158 L 112.25685,509.54158"
       id="path322" />
    <path
       style="fill:none;stroke:#000000;stroke-width:1.19044197"
       d="M 119.3995,494.06583 L 112.25685,494.06583"
       id="path324" />
    <path
       style="fill:none;stroke:#000000;stroke-width:1.19044197"
       d="M 119.3995,477.39964 L 112.25685,477.39964"
       id="path326" />
    <path
       style="fill:none;stroke:#000000;stroke-width:1.19044197"
       d="M 119.3995,461.9239 L 112.25685,461.9239"
       id="path328" />
    <path
       style="fill:none;stroke:#000000;stroke-width:1.19044197"
       d="M 119.3995,446.44815 L 112.25685,446.44815"
       id="path330" />
    <path
       style="fill:none;stroke:#000000;stroke-width:1.19044197"
       d="M 127.7326,430.9724 L 112.25685,430.9724"
       id="path332" />
    <path
       style="fill:none;stroke:#000000;stroke-width:1.19044197"
       d="M 119.3995,415.49666 L 112.25685,415.49666"
       id="path334" />
    <path
       style="fill:none;stroke:#000000;stroke-width:1.19044197"
       d="M 119.3995,400.02091 L 112.25685,400.02091"
       id="path336" />
    <path
       style="fill:none;stroke:#000000;stroke-width:1.19044197"
       d="M 119.3995,383.35472 L 112.25685,383.35472"
       id="path338" />
    <path
       style="fill:none;stroke:#000000;stroke-width:1.19044197"
       d="M 119.3995,367.87898 L 112.25685,367.87898"
       id="path340" />
    <path
       style="fill:none;stroke:#000000;stroke-width:1.19044197"
       d="M 127.7326,352.40323 L 112.25685,352.40323"
       id="path342" />
    <path
       style="fill:none;stroke:#000000;stroke-width:1.19044197"
       d="M 119.3995,336.92749 L 112.25685,336.92749"
       id="path344" />
    <path
       style="fill:none;stroke:#000000;stroke-width:1.19044197"
       d="M 119.3995,321.45173 L 112.25685,321.45173"
       id="path346" />
    <path
       style="fill:none;stroke:#000000;stroke-width:1.19044197"
       d="M 119.3995,305.97598 L 112.25685,305.97598"
       id="path348" />
    <path
       style="fill:none;stroke:#000000;stroke-width:1.19044197"
       d="M 119.3995,289.30979 L 112.25685,289.30979"
       id="path350" />
    <path
       style="fill:none;stroke:#000000;stroke-width:1.19044197"
       d="M 127.7326,273.83406 L 112.25685,273.83406"
       id="path352" />
    <path
       style="fill:none;stroke:#000000;stroke-width:1.19044197"
       d="M 119.3995,258.35831 L 112.25685,258.35831"
       id="path354" />
    <path
       style="fill:none;stroke:#000000;stroke-width:1.19044197"
       d="M 119.3995,242.88257 L 112.25685,242.88257"
       id="path356" />
    <path
       style="fill:none;stroke:#000000;stroke-width:1.19044197"
       d="M 119.3995,227.40682 L 112.25685,227.40682"
       id="path358" />
    <path
       style="fill:none;stroke:#000000;stroke-width:1.19044197"
       d="M 119.3995,211.93109 L 112.25685,211.93109"
       id="path360" />
    <path
       style="fill:none;stroke:#000000;stroke-width:1.19044197"
       d="M 127.7326,195.26488 L 112.25685,195.26488"
       id="path362" />
    <path
       style="fill:none;stroke:#000000;stroke-width:1.19044197"
       d="M 119.3995,179.78914 L 112.25685,179.78914"
       id="path364" />
    <path
       style="fill:none;stroke:#000000;stroke-width:1.19044197"
       d="M 119.3995,164.3134 L 112.25685,164.3134"
       id="path366" />
    <path
       style="fill:none;stroke:#000000;stroke-width:1.19044197"
       d="M 119.3995,148.83763 L 112.25685,148.83763"
       id="path368" />
    <path
       style="fill:none;stroke:#000000;stroke-width:1.19044197"
       d="M 119.3995,133.36188 L 112.25685,133.36188"
       id="path370" />
    <path
       style="fill:none;stroke:#000000;stroke-width:1.19044197"
       d="M 127.7326,116.69569 L 112.25685,116.69569"
       id="path372" />
    <path
       style="fill:none;stroke:#000000;stroke-width:1.19044197"
       d="M 127.7326,116.69569 L 112.25685,116.69569"
       id="path374" />
    <path
       style="fill:none;stroke:#000000;stroke-width:1.19044197"
       d="M 119.3995,101.21994 L 112.25685,101.21994"
       id="path376" />
    <path
       style="fill:none;stroke:#000000;stroke-width:1.19044197"
       d="M 119.3995,85.744211 L 112.25685,85.744211"
       id="path378" />
    <path
       style="fill:none;stroke:#000000;stroke-width:1.19044197"
       d="M 119.3995,70.268461 L 112.25685,70.268461"
       id="path380" />
    <text
       style="font-size:21.66604614px;font-weight:bold;fill:#000000;font-family:Helvetica"
       x="88.345169"
       y="516.99182"
       font-size="13"
       font-weight="bold"
       id="text384">5</text>
    <text
       style="font-size:21.66604614px;font-weight:bold;fill:#000000;font-family:Helvetica"
       x="78.038467"
       y="439.10367"
       font-size="13"
       font-weight="bold"
       id="text386">10</text>
    <text
       style="font-size:21.66604614px;font-weight:bold;fill:#000000;font-family:Helvetica"
       x="77.605179"
       y="359.85349"
       font-size="13"
       font-weight="bold"
       id="text388">15</text>
    <text
       style="font-size:21.66604614px;font-weight:bold;fill:#000000;font-family:Helvetica"
       x="78.772049"
       y="282.31805"
       font-size="13"
       font-weight="bold"
       id="text390">20</text>
    <text
       style="font-size:21.66604614px;font-weight:bold;fill:#000000;font-family:Helvetica"
       x="78.338699"
       y="204.61125"
       font-size="13"
       font-weight="bold"
       id="text392">25</text>
    <text
       style="font-size:21.66604614px;font-weight:bold;fill:#000000;font-family:Helvetica"
       x="78.765823"
       y="125.90282"
       font-size="13"
       font-weight="bold"
       id="text394">30</text>
    <path
       style="fill:none;stroke:#000000;stroke-width:1.19044197"
       d="M 651.52709,588.11075 L 651.52709,60.744931"
       id="path396" />
    <path
       style="fill:none;stroke:#000000;stroke-width:1.19044197"
       d="M 636.05135,509.54158 L 651.52709,509.54158"
       id="path408" />
    <path
       style="fill:none;stroke:#000000;stroke-width:1.19044197"
       d="M 643.194,494.06583 L 651.52709,494.06583"
       id="path410" />
    <path
       style="fill:none;stroke:#000000;stroke-width:1.19044197"
       d="M 643.194,477.39964 L 651.52709,477.39964"
       id="path412" />
    <path
       style="fill:none;stroke:#000000;stroke-width:1.19044197"
       d="M 643.194,461.9239 L 651.52709,461.9239"
       id="path414" />
    <path
       style="fill:none;stroke:#000000;stroke-width:1.19044197"
       d="M 643.194,446.44815 L 651.52709,446.44815"
       id="path416" />
    <path
       style="fill:none;stroke:#000000;stroke-width:1.19044197"
       d="M 636.05135,430.9724 L 651.52709,430.9724"
       id="path418" />
    <path
       style="fill:none;stroke:#000000;stroke-width:1.19044197"
       d="M 643.194,415.49666 L 651.52709,415.49666"
       id="path420" />
    <path
       style="fill:none;stroke:#000000;stroke-width:1.19044197"
       d="M 643.194,400.02091 L 651.52709,400.02091"
       id="path422" />
    <path
       style="fill:none;stroke:#000000;stroke-width:1.19044197"
       d="M 643.194,383.35472 L 651.52709,383.35472"
       id="path424" />
    <path
       style="fill:none;stroke:#000000;stroke-width:1.19044197"
       d="M 643.194,367.87898 L 651.52709,367.87898"
       id="path426" />
    <path
       style="fill:none;stroke:#000000;stroke-width:1.19044197"
       d="M 636.05135,352.40323 L 651.52709,352.40323"
       id="path428" />
    <path
       style="fill:none;stroke:#000000;stroke-width:1.19044197"
       d="M 643.194,336.92749 L 651.52709,336.92749"
       id="path430" />
    <path
       style="fill:none;stroke:#000000;stroke-width:1.19044197"
       d="M 643.194,321.45173 L 651.52709,321.45173"
       id="path432" />
    <path
       style="fill:none;stroke:#000000;stroke-width:1.19044197"
       d="M 643.194,305.97598 L 651.52709,305.97598"
       id="path434" />
    <path
       style="fill:none;stroke:#000000;stroke-width:1.19044197"
       d="M 643.194,289.30979 L 651.52709,289.30979"
       id="path436" />
    <path
       style="fill:none;stroke:#000000;stroke-width:1.19044197"
       d="M 636.05135,273.83406 L 651.52709,273.83406"
       id="path438" />
    <path
       style="fill:none;stroke:#000000;stroke-width:1.19044197"
       d="M 643.194,258.35831 L 651.52709,258.35831"
       id="path440" />
    <path
       style="fill:none;stroke:#000000;stroke-width:1.19044197"
       d="M 643.194,242.88257 L 651.52709,242.88257"
       id="path442" />
    <path
       style="fill:none;stroke:#000000;stroke-width:1.19044197"
       d="M 643.194,227.40682 L 651.52709,227.40682"
       id="path444" />
    <path
       style="fill:none;stroke:#000000;stroke-width:1.19044197"
       d="M 643.194,211.93109 L 651.52709,211.93109"
       id="path446" />
    <path
       style="fill:none;stroke:#000000;stroke-width:1.19044197"
       d="M 636.05135,195.26488 L 651.52709,195.26488"
       id="path448" />
    <path
       style="fill:none;stroke:#000000;stroke-width:1.19044197"
       d="M 643.194,179.78914 L 651.52709,179.78914"
       id="path450" />
    <path
       style="fill:none;stroke:#000000;stroke-width:1.19044197"
       d="M 643.194,164.3134 L 651.52709,164.3134"
       id="path452" />
    <path
       style="fill:none;stroke:#000000;stroke-width:1.19044197"
       d="M 643.194,148.83763 L 651.52709,148.83763"
       id="path454" />
    <path
       style="fill:none;stroke:#000000;stroke-width:1.19044197"
       d="M 643.194,133.36188 L 651.52709,133.36188"
       id="path456" />
    <path
       style="fill:none;stroke:#000000;stroke-width:1.19044197"
       d="M 636.05135,116.69569 L 651.52709,116.69569"
       id="path458" />
    <path
       style="fill:none;stroke:#000000;stroke-width:1.19044197"
       d="M 636.05135,116.69569 L 651.52709,116.69569"
       id="path460" />
    <path
       style="fill:none;stroke:#000000;stroke-width:1.19044197"
       d="M 643.194,101.21994 L 651.52709,101.21994"
       id="path462" />
    <path
       style="fill:none;stroke:#000000;stroke-width:1.19044197"
       d="M 643.194,85.744211 L 651.52709,85.744211"
       id="path464" />
    <path
       style="fill:none;stroke:#000000;stroke-width:1.19044197"
       d="M 643.194,70.268461 L 651.52709,70.268461"
       id="path466" />
    <path
       d="M 112.63805,588.18452 L 176.87025,588.18452 L 176.87025,556.68169 L 182.81767,556.68169 L 182.81767,572.43302 L 187.57562,572.43302 L 187.57562,588.18452 L 204.2284,588.18452 L 204.2284,572.43302 L 219.69171,572.43302 L 219.69171,588.18452 L 230.39707,588.18452 L 230.39707,572.43302 L 236.3445,572.43302 L 236.3445,556.68169 L 242.29192,556.68169 L 242.29192,588.18452 L 247.04985,588.18452 L 247.04985,556.68169 L 257.75522,556.68169 L 257.75522,572.43302 L 268.46059,572.43302 L 268.46059,556.68169 L 289.87131,556.68169 L 289.87131,542.24289 L 295.81873,542.24289 L 295.81873,572.43302 L 300.57669,572.43302 L 300.57669,494.98867 L 306.52411,494.98867 L 306.52411,542.24289 L 312.47154,542.24289 L 312.47154,494.98867 L 317.22947,494.98867 L 317.22947,480.54988 L 323.1769,480.54988 L 323.1769,403.10545 L 327.93483,403.10545 L 327.93483,418.85686 L 333.88226,418.85686 L 333.88226,311.22222 L 338.6402,311.22222 L 338.6402,387.35403 L 349.34557,387.35403 L 349.34557,311.22222 L 355.29299,311.22222 L 355.29299,295.47081 L 360.05093,295.47081 L 360.05093,341.41243 L 365.99835,341.41243 L 365.99835,387.35403 L 370.75629,387.35403 L 370.75629,418.85686 L 381.46166,418.85686 L 381.46166,464.79847 L 393.35651,464.79847 L 393.35651,494.98867 L 398.11445,494.98867 L 398.11445,510.74009 L 404.06187,510.74009 L 404.06187,403.10545 L 408.81981,403.10545 L 408.81981,494.98867 L 414.76723,494.98867 L 414.76723,464.79847 L 419.52518,464.79847 L 419.52518,526.49149 L 425.4726,526.49149 L 425.4726,480.54988 L 430.23054,480.54988 L 430.23054,526.49149 L 436.17797,526.49149 L 436.17797,494.98867 L 440.93591,494.98867 L 440.93591,510.74009 L 446.88333,510.74009 L 446.88333,542.24289 L 451.64127,542.24289 L 451.64127,572.43302 L 457.5887,572.43302 L 457.5887,510.74009 L 462.34663,510.74009 L 462.34663,526.49149 L 468.29406,526.49149 L 468.29406,588.18452 L 474.24148,588.18452 L 474.24148,480.54988 L 478.99943,480.54988 L 478.99943,588.18452 L 484.94685,588.18452 L 484.94685,556.68169 L 495.65221,556.68169 L 495.65221,572.43302 L 500.41015,572.43302 L 500.41015,556.68169 L 506.35758,556.68169 L 506.35758,588.18452 L 517.06294,588.18452 L 517.06294,556.68169 L 521.82087,556.68169 L 521.82087,572.43302 L 538.47367,572.43302 L 538.47367,588.18452 L 559.88439,588.18452 L 559.88439,572.43302 L 570.58977,572.43302 L 570.58977,588.18452 L 576.53719,588.18452 L 576.53719,572.43302 L 581.29513,572.43302 L 581.29513,588.18452 L 640.76937,588.18452 L 640.76937,556.68169 L 646.71679,556.68169 L 646.71679,588.18452 L 651.47474,588.18452"
       id="path12289"
       style="opacity:1;fill:#993399;fill-opacity:1;fill-rule:evenodd;stroke:#000000;stroke-width:2;stroke-linecap:butt;stroke-linejoin:miter;marker:none;marker-start:none;marker-mid:none;marker-end:none;stroke-miterlimit:4;stroke-dasharray:none;stroke-dashoffset:0;stroke-opacity:1;visibility:visible;display:inline;overflow:visible;enable-background:accumulate" />
    <path
       id="path516"
       style="opacity:1;fill:#ffff00;fill-opacity:1;fill-rule:nonzero;stroke:#000000;stroke-width:2;stroke-linecap:butt;stroke-linejoin:miter;marker:none;marker-start:none;marker-mid:none;marker-end:none;stroke-miterlimit:4;stroke-dasharray:none;stroke-dashoffset:0;stroke-opacity:1;visibility:visible;display:inline;overflow:visible;enable-background:accumulate"
       d="M 112.25685,588.1108 L 225.34886,588.1108 L 225.34886,572.635 L 236.06284,572.635 L 236.06284,588.1108 L 252.72903,588.1108 L 252.72903,572.635 L 257.49079,572.635 L 257.49079,588.1108 L 274.15698,588.1108 L 274.15698,555.9688 L 284.87096,555.9688 L 284.87096,572.635 L 289.63273,572.635 L 289.63273,588.1108 L 295.58494,588.1108 L 295.58494,572.635 L 300.34671,572.635 L 300.34671,555.9688 L 306.29892,555.9688 L 306.29892,588.1108 L 312.25113,588.1108 L 312.25113,555.9688 L 317.01289,555.9688 L 317.01289,540.4931 L 322.9651,540.4931 L 322.9651,572.635 L 327.72687,572.635 L 327.72687,494.0658 L 333.67908,494.0658 L 333.67908,477.3996 L 338.44085,477.3996 L 338.44085,494.0658 L 344.39306,494.0658 L 344.39306,383.3547 L 355.10704,383.3547 L 355.10704,227.40682 L 359.86881,227.40682 L 359.86881,321.45173 L 365.82102,321.45173 L 365.82102,101.21994 L 370.58278,101.21994 L 370.58278,179.78914 L 376.53499,179.78914 L 376.53499,60.74493 L 381.29676,60.74493 L 381.29676,85.74421 L 381.29676,85.74421 L 387.24897,85.74421 L 387.24897,227.40682 L 393.20118,227.40682 L 393.20118,273.83406 L 397.96295,273.83406 L 397.96295,430.9724 L 403.91516,430.9724 L 403.91516,367.87898 L 408.67693,367.87898 L 408.67693,415.4967 L 414.62914,415.4967 L 414.62914,477.3996 L 419.39091,477.3996 L 419.39091,540.4931 L 425.34312,540.4931 L 425.34312,555.9688 L 446.77107,555.9688 L 446.77107,525.0173 L 451.53284,525.0173 L 451.53284,572.635 L 457.48505,572.635 L 457.48505,588.1108 L 462.24682,588.1108 L 462.24682,540.4931 L 468.19903,540.4931 L 468.19903,588.1108 L 478.91301,588.1108 L 478.91301,572.635 L 484.86522,572.635 L 484.86522,588.1108 L 532.48289,588.1108 L 532.48289,572.635 L 538.4351,572.635 L 538.4351,588.1108 L 559.86306,588.1108 L 559.86306,572.635 L 565.81527,572.635 L 565.81527,588.1108 L 587.24323,588.1108 L 587.24323,572.635 L 592.00499,572.635 L 592.00499,588.1108 L 651.52709,588.1108"
       sodipodi:nodetypes="ccccccccccccccccccccccccccccccccccccccccccccccccccccccccccccccccccccccccccccccccccccccccccc" />
    <text
       x="678.41992"
       y="-98.274437"
       font-size="20"
       font-weight="bold"
       id="text3719"
       style="font-size:25.06572342px;font-weight:bold;opacity:0.98999999;fill:#000000;font-family:Helvetica"
       transform="scale(0.9498566,1.0527905)" />
    <path
       d="M 376.53499,777.17073 L 377.72544,778.36117 L 380.10632,780.74206 L 381.29676,784.3134 L 382.4872,790.26561 L 383.67765,797.40826 L 386.05853,806.93178 L 387.24897,816.45533 L 388.43941,828.35976 L 389.62986,841.45462 L 392.01074,855.73992 L 393.20118,870.02522 L 394.39162,885.50097 L 395.58207,902.16715 L 397.96295,918.83333 L 399.15339,935.49952 L 400.34383,952.16572 L 401.53428,968.83191 L 403.91516,985.49809 L 405.1056,1002.1643 L 406.29604,1017.64 L 407.48649,1033.1158 L 409.86737,1048.5915 L 411.05781,1062.8768 L 412.24825,1075.9717 L 413.4387,1089.0666 L 415.81958,1100.971 L 417.01002,1111.6849 L 418.20046,1122.3989 L 419.39091,1131.9225 L 421.77179,1140.2555 L 422.96223,1148.5887 L 424.15267,1155.7313 L 425.34312,1162.874 L 427.724,1167.6357 L 428.91444,1173.5879 L 430.10488,1178.3497 L 431.29533,1181.921 L 433.67621,1185.4923 L 434.86665,1189.0637 L 436.05709,1191.4446 L 437.24754,1195.0159 L 439.62842,1196.2063 L 440.81886,1198.5872 L 442.0093,1199.7776 L 443.19975,1200.9681 L 445.58063,1202.1585 L 446.77107,1203.349 L 447.96151,1204.5394 L 449.15196,1204.5394"
       id="path600"
       style="fill:none;stroke:#000000;stroke-width:3.4016881;stroke-miterlimit:4;stroke-dasharray:none;stroke-opacity:1" />
    <path
       d="M 303.91803,1204.5394 L 305.10847,1204.5394 L 307.48936,1203.349 L 308.6798,1203.349 L 309.87024,1202.1585 L 311.06068,1200.9681 L 313.44157,1198.5872 L 314.63201,1197.3968 L 315.82245,1195.0159 L 317.01289,1192.635 L 319.39378,1190.2541 L 320.58422,1187.8732 L 321.77466,1184.3019 L 322.9651,1179.5401 L 325.34599,1175.9688 L 326.53643,1170.0166 L 327.72687,1165.2548 L 328.91731,1158.1122 L 331.2982,1152.16 L 332.48864,1143.8269 L 333.67908,1135.4938 L 334.86952,1125.9702 L 337.25041,1116.4467 L 338.44085,1105.7327 L 339.63129,1093.8283 L 340.82173,1081.9239 L 343.20262,1068.829 L 344.39306,1054.5437 L 345.5835,1040.2584 L 346.77394,1024.7827 L 349.15483,1009.3069 L 350.34527,992.64075 L 351.53571,975.97456 L 352.72615,959.30837 L 355.10704,942.64217 L 356.29748,925.97598 L 357.48792,909.30979 L 358.67836,892.64362 L 361.05925,877.16787 L 362.24969,861.69213 L 363.44013,847.40682 L 364.63057,834.31197 L 365.82102,821.2171 L 368.2019,810.50311 L 369.39234,800.97958 L 370.58278,792.64649 L 371.77323,786.69428 L 374.15411,781.9325 L 375.34455,778.36117 L 376.53499,777.17073"
       id="path598"
       style="fill:none;stroke:#000000;stroke-width:3.4016881;stroke-miterlimit:4;stroke-dasharray:none;stroke-opacity:1" />
    <text
       xml:space="preserve"
       style="font-size:32.06555176px;font-style:normal;font-variant:normal;font-weight:normal;font-stretch:normal;text-align:center;line-height:125%;writing-mode:lr-tb;text-anchor:middle;fill:#000000;fill-opacity:1;stroke:none;stroke-width:1px;stroke-linecap:butt;stroke-linejoin:miter;stroke-opacity:1;font-family:Bitstream Vera Sans;-inkscape-font-specification:Bitstream Vera Sans"
       x="-350.55014"
       y="49.990131"
       id="text4528"
       sodipodi:linespacing="125%"
       transform="matrix(0,-1,1,0,0,0)"><tspan
         sodipodi:role="line"
         id="tspan4530"
         x="-350.55014"
         y="49.990131">Track pairs / 2%</tspan></text>
    <path
       style="fill:none;stroke:#000000;stroke-width:1.19044197"
       d="M 119.3995,525.01732 L 112.25685,525.01732"
       id="path320" />
    <path
       style="fill:none;stroke:#000000;stroke-width:1.19044197"
       d="M 643.194,525.01732 L 651.52709,525.01732"
       id="path406" />
    <text
       xml:space="preserve"
       style="font-size:37.03484344px;font-style:normal;font-variant:normal;font-weight:normal;font-stretch:normal;text-align:center;line-height:125%;writing-mode:lr-tb;text-anchor:middle;fill:#000000;fill-opacity:1;stroke:none;stroke-width:1px;stroke-linecap:butt;stroke-linejoin:miter;stroke-opacity:1;font-family:Bitstream Vera Sans;-inkscape-font-specification:Bitstream Vera Sans"
       x="384.02539"
       y="655.65942"
       id="text4524"
       sodipodi:linespacing="125%"><tspan
         sodipodi:role="line"
         id="tspan4526"
         x="384.02539"
         y="655.65942">Δκ/(√2 κ) (%)</tspan></text>
    <path
       style="opacity:1;fill:none;fill-opacity:1;fill-rule:evenodd;stroke:#000000;stroke-width:2;stroke-linecap:butt;stroke-linejoin:miter;marker:none;marker-start:none;marker-mid:none;marker-end:none;stroke-miterlimit:4;stroke-dasharray:6, 6;stroke-dashoffset:0;stroke-opacity:1;visibility:visible;display:inline;overflow:visible;enable-background:accumulate"
       id="path6168"
       d="M 112.63805,588.1845 L 176.87025,588.1845 L 176.87025,556.6817 L 182.81767,556.6817 L 182.81767,572.433 L 187.57562,572.433 L 187.57562,588.1845 L 204.2284,588.1845 L 204.2284,572.433 L 219.69171,572.433 L 219.69171,588.1845 L 230.39707,588.1845 L 230.39707,572.433 L 236.3445,572.433 L 236.3445,556.6817 L 242.29192,556.6817 L 242.29192,588.1845 L 247.04985,588.1845 L 247.04985,556.6817 L 257.75522,556.6817 L 257.75522,572.433 L 268.46059,572.433 L 268.46059,556.6817 L 289.87131,556.6817 L 289.87131,542.2429 L 295.81873,542.2429 L 295.81873,572.433 L 300.57669,572.433 L 300.57669,494.9887 L 306.52411,494.9887 L 306.52411,542.2429 L 312.47154,542.2429 L 312.47154,494.9887 L 317.22947,494.9887 L 317.22947,480.5499 L 323.1769,480.5499 L 323.1769,403.1055 L 327.93483,403.1055 L 327.93483,418.8569 L 333.88226,418.8569 L 333.88226,311.2222 L 338.6402,311.2222 L 338.6402,387.354 L 349.34557,387.354 L 349.34557,311.2222 L 355.29299,311.2222 L 355.29299,295.4708 L 360.05093,295.4708 L 360.05093,341.4124 L 365.99835,341.4124 L 365.99835,387.354 L 370.75629,387.354 L 370.75629,418.8569 L 381.46166,418.8569 L 381.46166,464.7985 L 393.35651,464.7985 L 393.35651,494.9887 L 398.11445,494.9887 L 398.11445,510.7401 L 404.06187,510.7401 L 404.06187,403.1055 L 408.81981,403.1055 L 408.81981,494.9887 L 414.76723,494.9887 L 414.76723,464.7985 L 419.52518,464.7985 L 419.52518,526.4915 L 425.4726,526.4915 L 425.4726,480.5499 L 430.23054,480.5499 L 430.23054,526.4915 L 436.17797,526.4915 L 436.17797,494.9887 L 440.93591,494.9887 L 440.93591,510.7401 L 446.88333,510.7401 L 446.88333,542.2429 L 451.64127,542.2429 L 451.64127,572.433 L 457.5887,572.433 L 457.5887,510.7401 L 462.34663,510.7401 L 462.34663,526.4915 L 468.29406,526.4915 L 468.29406,588.1845 L 474.24148,588.1845 L 474.24148,480.5499 L 478.99943,480.5499 L 478.99943,588.1845 L 484.94685,588.1845 L 484.94685,556.6817 L 495.65221,556.6817 L 495.65221,572.433 L 500.41015,572.433 L 500.41015,556.6817 L 506.35758,556.6817 L 506.35758,588.1845 L 517.06294,588.1845 L 517.06294,556.6817 L 521.82087,556.6817 L 521.82087,572.433 L 538.47367,572.433 L 538.47367,588.1845 L 559.88439,588.1845 L 559.88439,572.433 L 570.58977,572.433 L 570.58977,588.1845 L 576.53719,588.1845 L 576.53719,572.433 L 581.29513,572.433 L 581.29513,588.1845 L 640.76937,588.1845 L 640.76937,556.6817 L 646.71679,556.6817 L 646.71679,588.1845 L 651.47474,588.1845" />
    <path
       style="fill:none;stroke:#ff0000;stroke-width:3;stroke-miterlimit:4;stroke-dasharray:3,3;stroke-dashoffset:0"
       d="M 112.25685,588.1108 L 208.68267,588.1108 L 208.68267,572.635 L 214.63488,572.635 L 214.63488,588.1108 L 263.443,588.1108 L 263.443,572.635 L 268.20477,572.635 L 268.20477,588.1108 L 274.15698,588.1108 L 274.15698,572.635 L 278.91875,572.635 L 278.91875,588.1108 L 289.63273,588.1108 L 289.63273,555.9688 L 295.58494,555.9688 L 295.58494,572.635 L 300.34671,572.635 L 300.34671,588.1108 L 306.29892,588.1108 L 306.29892,540.4931 L 312.25113,540.4931 L 312.25113,572.635 L 317.01289,572.635 L 317.01289,555.9688 L 333.67908,555.9688 L 333.67908,540.4931 L 338.44085,540.4931 L 338.44085,509.5416 L 344.39306,509.5416 L 344.39306,383.3547 L 349.15483,383.3547 L 349.15483,336.9275 L 355.10704,336.9275 L 355.10704,211.93109 L 365.82102,211.93109 L 365.82102,367.879 L 370.58278,367.879 L 370.58278,85.74421 L 387.24897,85.74421 L 387.24897,273.8341 L 393.20118,273.8341 L 393.20118,321.4517 L 403.91516,321.4517 L 403.91516,227.4068 L 408.67693,227.4068 L 408.67693,415.4967 L 414.62914,415.4967 L 414.62914,461.9239 L 419.39091,461.9239 L 419.39091,509.5416 L 425.34312,509.5416 L 425.34312,477.3996 L 430.10488,477.3996 L 430.10488,555.9688 L 436.05709,555.9688 L 436.05709,525.0173 L 446.77107,525.0173 L 446.77107,572.635 L 457.48505,572.635 L 457.48505,588.1108 L 495.57919,588.1108 L 495.57919,572.635 L 511.05494,572.635 L 511.05494,588.1108 L 517.00715,588.1108 L 517.00715,572.635 L 521.76892,572.635 L 521.76892,588.1108 L 587.24323,588.1108 L 587.24323,572.635 L 592.00499,572.635 L 592.00499,588.1108 L 651.52709,588.1108"
       id="path20" />
    <path
       d="M 240.93753,1203.7273 L 243.3219,1202.4149 L 245.70627,1201.1026 L 249.28283,1201.1026 L 251.6672,1199.7903 L 254.05158,1198.4779 L 256.43595,1197.1656 L 258.82032,1195.8533 L 262.39688,1194.5409 L 264.78126,1191.9163 L 267.16564,1190.6039 L 269.55001,1187.9793 L 273.12656,1185.3546 L 275.51094,1182.7299 L 277.89531,1180.1052 L 280.27969,1177.4806 L 283.85625,1173.5436 L 286.24062,1170.9189 L 288.62499,1166.9819 L 291.00937,1163.0449 L 294.58593,1157.7955 L 296.9703,1153.8585 L 299.35467,1148.6092 L 301.73905,1143.3598 L 304.12343,1138.1105 L 307.69999,1132.8611 L 310.08436,1126.2995 L 312.46873,1121.0501 L 314.8531,1114.4884 L 318.42967,1109.2391 L 320.81404,1102.6774 L 323.19841,1096.1158 L 325.58278,1090.8664 L 329.15934,1084.3047 L 331.54372,1079.0554 L 333.9281,1072.4937 L 336.31247,1067.2444 L 338.69684,1061.995 L 342.2734,1056.7457 L 344.65778,1051.4963 L 347.04215,1047.5593 L 349.42652,1043.6223 L 353.00308,1039.6853 L 355.38746,1037.0606 L 357.77183,1034.436 L 360.15621,1031.8113 L 363.73276,1030.499 L 366.11713,1030.499 L 368.50152,1029.1866 L 370.88589,1030.499"
       id="path12367"
       style="fill:none;stroke:#000000;stroke-width:3.75;stroke-miterlimit:4;stroke-dasharray:none;stroke-opacity:1" />
    <path
       d="M 370.88589,1030.499 L 373.27026,1030.499 L 376.84682,1031.8113 L 379.23119,1034.436 L 381.61557,1037.0606 L 383.99994,1039.6853 L 387.5765,1043.6223 L 389.96087,1047.5593 L 392.34524,1051.4963 L 394.72963,1056.7457 L 398.30618,1061.995 L 400.69056,1067.2444 L 403.07493,1072.4937 L 405.4593,1079.0554 L 407.84368,1084.3047 L 411.42024,1090.8664 L 413.80461,1097.4281 L 416.18898,1102.6774 L 418.57335,1109.2391 L 422.14992,1115.8008 L 424.53429,1121.0501 L 426.91867,1127.6118 L 429.30304,1132.8611 L 432.8796,1138.1105 L 435.26398,1143.3598 L 437.64835,1148.6092 L 440.03272,1153.8585 L 442.41709,1157.7955 L 445.99366,1163.0449 L 448.37803,1166.9819 L 450.7624,1170.9189 L 453.14678,1174.8559 L 456.72333,1177.4806 L 459.10772,1180.1052 L 461.49209,1184.0422 L 463.87646,1186.6669 L 467.45302,1187.9793 L 469.83739,1190.6039 L 472.22177,1193.2286 L 474.60614,1194.5409 L 478.1827,1195.8533 L 480.56707,1197.1656 L 482.95144,1198.4779 L 485.33582,1199.7903 L 487.7202,1201.1026 L 491.29675,1201.1026 L 493.68113,1202.4149 L 496.0655,1203.7273 L 502.02644,1203.7273"
       id="path12369"
       style="fill:none;stroke:#000000;stroke-width:3.75;stroke-miterlimit:4;stroke-dasharray:none;stroke-opacity:1" />
    <path
       d="M 312.25113,1199.7776 L 313.44157,1198.5872 L 314.63201,1197.3968 L 317.01289,1195.0159 L 318.20334,1192.635 L 319.39378,1191.4446 L 320.58422,1187.8732 L 321.77466,1185.4923 L 322.9651,1181.921 L 325.34599,1178.3497 L 326.53643,1174.7784 L 327.72687,1170.0166 L 328.91731,1165.2548 L 330.10776,1160.4931 L 331.2982,1154.5409 L 333.67908,1148.5887 L 334.86952,1141.446 L 336.05997,1134.3033 L 337.25041,1125.9702 L 338.44085,1117.6372 L 339.63129,1108.1136 L 342.01218,1098.5901 L 343.20262,1087.8761 L 344.39306,1077.1621 L 345.5835,1065.2577 L 346.77394,1053.3533 L 347.96439,1041.4489 L 350.34527,1028.354 L 351.53571,1015.2591 L 352.72615,1002.1643 L 353.9166,989.06942 L 355.10704,974.78412 L 356.29748,960.49881 L 358.67836,947.40395 L 359.86881,933.11863 L 361.05925,920.02377 L 362.24969,906.92891 L 363.44013,893.83406 L 364.63057,880.7392 L 367.01146,868.83478 L 368.2019,858.1208 L 369.39234,847.40682 L 370.58278,837.8833 L 371.77323,829.5502 L 372.96367,822.40754 L 375.34455,816.45533 L 376.53499,810.50311 L 377.72544,806.93178 L 378.91588,804.5509 L 380.10632,803.36046"
       id="path510"
       style="fill:none;stroke:#ff0000;stroke-width:5;stroke-linecap:round;stroke-miterlimit:4;stroke-dasharray:5, 15;stroke-dashoffset:0" />
    <path
       d="M 380.10632,803.36046 L 381.29676,802.17003 L 383.67765,803.36046 L 384.86809,805.74134 L 386.05853,810.50311 L 387.24897,815.26488 L 388.43941,821.2171 L 389.62986,828.35976 L 392.01074,836.69286 L 393.20118,846.21638 L 394.39162,855.73992 L 395.58207,866.45389 L 396.77251,878.35831 L 397.96295,890.26273 L 400.34383,903.35758 L 401.53428,916.45245 L 402.72472,930.73775 L 403.91516,943.83261 L 405.1056,958.11793 L 406.29604,972.40323 L 408.67693,985.49809 L 409.86737,999.7834 L 411.05781,1012.8783 L 412.24825,1025.9731 L 413.4387,1039.068 L 414.62914,1050.9724 L 417.01002,1062.8768 L 418.20046,1074.7812 L 419.39091,1085.4952 L 420.58135,1096.2092 L 421.77179,1105.7327 L 422.96223,1115.2563 L 425.34312,1123.5894 L 426.53356,1131.9225 L 427.724,1139.0651 L 428.91444,1146.2078 L 430.10488,1153.3504 L 431.29533,1159.3026 L 433.67621,1164.0644 L 434.86665,1168.8262 L 436.05709,1173.5879 L 437.24754,1178.3497 L 438.43798,1181.921 L 439.62842,1184.3019 L 442.0093,1187.8732 L 443.19975,1190.2541 L 444.39019,1192.635 L 445.58063,1195.0159 L 446.77107,1196.2063 L 447.96151,1198.5872"
       id="path512"
       style="fill:none;stroke:#ff0000;stroke-width:5;stroke-linecap:round;stroke-miterlimit:4;stroke-dasharray:5, 15;stroke-dashoffset:0" />
    <text
       xml:space="preserve"
       style="font-size:29.68258095px;font-style:normal;font-variant:normal;font-weight:normal;font-stretch:normal;text-align:center;line-height:125%;writing-mode:lr-tb;text-anchor:middle;fill:#000000;fill-opacity:1;stroke:none;stroke-width:1px;stroke-linecap:butt;stroke-linejoin:miter;stroke-opacity:1;font-family:Bitstream Vera Sans;-inkscape-font-specification:Bitstream Vera Sans"
       x="565.81628"
       y="43.346802"
       id="text3180"
       sodipodi:linespacing="125%"><tspan
         sodipodi:role="line"
         id="tspan3182"
         x="565.81628"
         y="43.346802">CMS 2008</tspan></text>
    <path
       style="fill:none;stroke:#000000;stroke-width:1.19044197"
       d="M 112.25685,588.11075 L 651.52709,588.11075"
       id="path64" />
    <path
       style="fill:none;stroke:#000000;stroke-width:1.19044197"
       d="M 112.25685,571.44456 L 112.25685,588.11075"
       id="path78" />
    <path
       style="fill:none;stroke:#000000;stroke-width:1.19044197"
       d="M 122.97083,579.77765 L 122.97083,588.11075"
       id="path80" />
    <path
       style="fill:none;stroke:#000000;stroke-width:1.19044197"
       d="M 133.68481,579.77765 L 133.68481,588.11075"
       id="path82" />
    <path
       style="fill:none;stroke:#000000;stroke-width:1.19044197"
       d="M 144.3988,579.77765 L 144.3988,588.11075"
       id="path84" />
    <path
       style="fill:none;stroke:#000000;stroke-width:1.19044197"
       d="M 155.11278,579.77765 L 155.11278,588.11075"
       id="path86" />
    <path
       style="fill:none;stroke:#000000;stroke-width:1.19044197"
       d="M 165.82676,571.44456 L 165.82676,588.11075"
       id="path88" />
    <path
       style="fill:none;stroke:#000000;stroke-width:1.19044197"
       d="M 176.54074,579.77765 L 176.54074,588.11075"
       id="path90" />
    <path
       style="fill:none;stroke:#000000;stroke-width:1.19044197"
       d="M 187.25472,579.77765 L 187.25472,588.11075"
       id="path92" />
    <path
       style="fill:none;stroke:#000000;stroke-width:1.19044197"
       d="M 197.96869,579.77765 L 197.96869,588.11075"
       id="path94" />
    <path
       style="fill:none;stroke:#000000;stroke-width:1.19044197"
       d="M 208.68267,579.77765 L 208.68267,588.11075"
       id="path96" />
    <path
       style="fill:none;stroke:#000000;stroke-width:1.19044197"
       d="M 219.39665,571.44456 L 219.39665,588.11075"
       id="path98" />
    <path
       style="fill:none;stroke:#000000;stroke-width:1.19044197"
       d="M 230.11063,579.77765 L 230.11063,588.11075"
       id="path100" />
    <path
       style="fill:none;stroke:#000000;stroke-width:1.19044197"
       d="M 242.01505,579.77765 L 242.01505,588.11075"
       id="path102" />
    <path
       style="fill:none;stroke:#000000;stroke-width:1.19044197"
       d="M 252.72903,579.77765 L 252.72903,588.11075"
       id="path104" />
    <path
       style="fill:none;stroke:#000000;stroke-width:1.19044197"
       d="M 263.443,579.77765 L 263.443,588.11075"
       id="path106" />
    <path
       style="fill:none;stroke:#000000;stroke-width:1.19044197"
       d="M 274.15698,571.44456 L 274.15698,588.11075"
       id="path108" />
    <path
       style="fill:none;stroke:#000000;stroke-width:1.19044197"
       d="M 284.87096,579.77765 L 284.87096,588.11075"
       id="path110" />
    <path
       style="fill:none;stroke:#000000;stroke-width:1.19044197"
       d="M 295.58494,579.77765 L 295.58494,588.11075"
       id="path112" />
    <path
       style="fill:none;stroke:#000000;stroke-width:1.19044197"
       d="M 306.29892,579.77765 L 306.29892,588.11075"
       id="path114" />
    <path
       style="fill:none;stroke:#000000;stroke-width:1.19044197"
       d="M 317.01289,579.77765 L 317.01289,588.11075"
       id="path116" />
    <path
       style="fill:none;stroke:#000000;stroke-width:1.19044197"
       d="M 327.72687,571.44456 L 327.72687,588.11075"
       id="path118" />
    <path
       style="fill:none;stroke:#000000;stroke-width:1.19044197"
       d="M 338.44085,579.77765 L 338.44085,588.11075"
       id="path120" />
    <path
       style="fill:none;stroke:#000000;stroke-width:1.19044197"
       d="M 349.15483,579.77765 L 349.15483,588.11075"
       id="path122" />
    <path
       style="fill:none;stroke:#000000;stroke-width:1.19044197"
       d="M 359.86881,579.77765 L 359.86881,588.11075"
       id="path124" />
    <path
       style="fill:none;stroke:#000000;stroke-width:1.19044197"
       d="M 370.58278,579.77765 L 370.58278,588.11075"
       id="path126" />
    <path
       style="fill:none;stroke:#000000;stroke-width:1.19044197"
       d="M 381.29676,571.44456 L 381.29676,588.11075"
       id="path128" />
    <path
       style="fill:none;stroke:#000000;stroke-width:1.19044197"
       d="M 393.20118,579.77765 L 393.20118,588.11075"
       id="path130" />
    <path
       style="fill:none;stroke:#000000;stroke-width:1.19044197"
       d="M 403.91516,579.77765 L 403.91516,588.11075"
       id="path132" />
    <path
       style="fill:none;stroke:#000000;stroke-width:1.19044197"
       d="M 414.62914,579.77765 L 414.62914,588.11075"
       id="path134" />
    <path
       style="fill:none;stroke:#000000;stroke-width:1.19044197"
       d="M 425.34312,579.77765 L 425.34312,588.11075"
       id="path136" />
    <path
       style="fill:none;stroke:#000000;stroke-width:1.19044197"
       d="M 436.05709,571.44456 L 436.05709,588.11075"
       id="path138" />
    <path
       style="fill:none;stroke:#000000;stroke-width:1.19044197"
       d="M 446.77107,579.77765 L 446.77107,588.11075"
       id="path140" />
    <path
       style="fill:none;stroke:#000000;stroke-width:1.19044197"
       d="M 457.48505,579.77765 L 457.48505,588.11075"
       id="path142" />
    <path
       style="fill:none;stroke:#000000;stroke-width:1.19044197"
       d="M 468.19903,579.77765 L 468.19903,588.11075"
       id="path144" />
    <path
       style="fill:none;stroke:#000000;stroke-width:1.19044197"
       d="M 478.91301,579.77765 L 478.91301,588.11075"
       id="path146" />
    <path
       style="fill:none;stroke:#000000;stroke-width:1.19044197"
       d="M 489.62698,571.44456 L 489.62698,588.11075"
       id="path148" />
    <path
       style="fill:none;stroke:#000000;stroke-width:1.19044197"
       d="M 500.34096,579.77765 L 500.34096,588.11075"
       id="path150" />
    <path
       style="fill:none;stroke:#000000;stroke-width:1.19044197"
       d="M 511.05494,579.77765 L 511.05494,588.11075"
       id="path152" />
    <path
       style="fill:none;stroke:#000000;stroke-width:1.19044197"
       d="M 521.76892,579.77765 L 521.76892,588.11075"
       id="path154" />
    <path
       style="fill:none;stroke:#000000;stroke-width:1.19044197"
       d="M 532.48289,579.77765 L 532.48289,588.11075"
       id="path156" />
    <path
       style="fill:none;stroke:#000000;stroke-width:1.19044197"
       d="M 544.38731,571.44456 L 544.38731,588.11075"
       id="path158" />
    <path
       style="fill:none;stroke:#000000;stroke-width:1.19044197"
       d="M 555.10129,579.77765 L 555.10129,588.11075"
       id="path160" />
    <path
       style="fill:none;stroke:#000000;stroke-width:1.19044197"
       d="M 565.81527,579.77765 L 565.81527,588.11075"
       id="path162" />
    <path
       style="fill:none;stroke:#000000;stroke-width:1.19044197"
       d="M 576.52925,579.77765 L 576.52925,588.11075"
       id="path164" />
    <path
       style="fill:none;stroke:#000000;stroke-width:1.19044197"
       d="M 587.24323,579.77765 L 587.24323,588.11075"
       id="path166" />
    <path
       style="fill:none;stroke:#000000;stroke-width:1.19044197"
       d="M 597.9572,571.44456 L 597.9572,588.11075"
       id="path168" />
    <path
       style="fill:none;stroke:#000000;stroke-width:1.19044197"
       d="M 608.67118,579.77765 L 608.67118,588.11075"
       id="path170" />
    <path
       style="fill:none;stroke:#000000;stroke-width:1.19044197"
       d="M 619.38516,579.77765 L 619.38516,588.11075"
       id="path172" />
    <path
       style="fill:none;stroke:#000000;stroke-width:1.19044197"
       d="M 630.09914,579.77765 L 630.09914,588.11075"
       id="path174" />
    <path
       style="fill:none;stroke:#000000;stroke-width:1.19044197"
       d="M 640.81312,579.77765 L 640.81312,588.11075"
       id="path176" />
    <path
       style="fill:none;stroke:#000000;stroke-width:1.19044197"
       d="M 651.52709,571.44456 L 651.52709,588.11075"
       id="path178" />
    <text
       style="font-size:21.66604614px;font-weight:bold;fill:#000000;font-family:Helvetica"
       x="88.679031"
       y="610.88007"
       font-size="13"
       font-weight="bold"
       id="text180">−50</text>
    <text
       style="font-size:21.66604614px;font-weight:bold;fill:#000000;font-family:Helvetica"
       x="145.83537"
       y="611.20819"
       font-size="13"
       font-weight="bold"
       id="text182">−40</text>
    <text
       style="font-size:21.66604614px;font-weight:bold;fill:#000000;font-family:Helvetica"
       x="199.26335"
       y="611.09369"
       font-size="13"
       font-weight="bold"
       id="text184">−30</text>
    <text
       style="font-size:21.66604614px;font-weight:bold;fill:#000000;font-family:Helvetica"
       x="254.90755"
       y="611.56097"
       font-size="13"
       font-weight="bold"
       id="text186">−20</text>
    <text
       style="font-size:21.66604614px;font-weight:bold;fill:#000000;font-family:Helvetica"
       x="307.91803"
       y="611.20819"
       font-size="13"
       font-weight="bold"
       id="text188">−10</text>
    <text
       style="font-size:21.66604614px;font-weight:bold;fill:#000000;font-family:Helvetica"
       x="376.0448"
       y="611.20819"
       font-size="13"
       font-weight="bold"
       id="text190">0</text>
    <text
       style="font-size:21.66604614px;font-weight:bold;fill:#000000;font-family:Helvetica"
       x="422.54803"
       y="611.20819"
       font-size="13"
       font-weight="bold"
       id="text192">10</text>
    <text
       style="font-size:21.66604614px;font-weight:bold;fill:#000000;font-family:Helvetica"
       x="478.29001"
       y="611.56097"
       font-size="13"
       font-weight="bold"
       id="text194">20</text>
    <text
       style="font-size:21.66604614px;font-weight:bold;fill:#000000;font-family:Helvetica"
       x="533.40869"
       y="611.09369"
       font-size="13"
       font-weight="bold"
       id="text196">30</text>
    <text
       style="font-size:21.66604614px;font-weight:bold;fill:#000000;font-family:Helvetica"
       x="585.54596"
       y="611.20819"
       font-size="13"
       font-weight="bold"
       id="text198">40</text>
    <text
       style="font-size:21.66604614px;font-weight:bold;fill:#000000;font-family:Helvetica"
       x="641.2392"
       y="610.88007"
       font-size="13"
       font-weight="bold"
       id="text200">50</text>
    <path
       style="fill:none;stroke:#000000;stroke-width:1.19044197"
       d="M 127.7326,588.11075 L 112.25685,588.11075"
       id="path312" />
    <path
       style="fill:none;stroke:#000000;stroke-width:1.19044197"
       d="M 119.3995,572.635 L 112.25685,572.635"
       id="path314" />
    <path
       style="fill:none;stroke:#000000;stroke-width:1.19044197"
       d="M 119.3995,555.96881 L 112.25685,555.96881"
       id="path316" />
    <path
       style="fill:none;stroke:#000000;stroke-width:1.19044197"
       d="M 119.3995,540.49307 L 112.25685,540.49307"
       id="path318" />
    <text
       style="font-size:21.66604614px;font-weight:bold;fill:#000000;font-family:Helvetica"
       x="87.167984"
       y="596.24207"
       font-size="13"
       font-weight="bold"
       id="text382">0</text>
    <path
       style="fill:none;stroke:#000000;stroke-width:1.19044197"
       d="M 636.05135,588.11075 L 651.52709,588.11075"
       id="path398" />
    <path
       style="fill:none;stroke:#000000;stroke-width:1.19044197"
       d="M 643.194,572.635 L 651.52709,572.635"
       id="path400" />
    <path
       style="fill:none;stroke:#000000;stroke-width:1.19044197"
       d="M 643.194,555.96881 L 651.52709,555.96881"
       id="path402" />
    <path
       style="fill:none;stroke:#000000;stroke-width:1.19044197"
       d="M 643.194,540.49307 L 651.52709,540.49307"
       id="path404" />
    <path
       d="M 449.15196,584.53942 L 451.53284,585.72986"
       id="path602"
       style="fill:none;stroke:#000000;stroke-width:3.57132602;stroke-opacity:1" />
    <path
       style="fill:none;stroke:#ff0000;stroke-width:3.57132602"
       d="M 447.96151,578.5872 L 450.3424,579.7776"
       id="path514" />
    <text
       xml:space="preserve"
       style="font-size:24px;font-style:normal;font-variant:normal;font-weight:bold;font-stretch:normal;text-align:start;line-height:125%;writing-mode:lr-tb;text-anchor:start;fill:#000000;fill-opacity:1;stroke:none;stroke-width:1px;stroke-linecap:butt;stroke-linejoin:miter;stroke-opacity:1;font-family:Bitstream Vera Sans;-inkscape-font-specification:Bitstream Vera Sans Bold"
       x="489.1701"
       y="103.53284"
       id="text2864"
       sodipodi:linespacing="125%"><tspan
         sodipodi:role="line"
         id="tspan2866"
         x="489.1701"
         y="103.53284">after</tspan><tspan
         sodipodi:role="line"
         x="489.1701"
         y="133.53284"
         id="tspan3646">alignment</tspan></text>
    <text
       sodipodi:linespacing="125%"
       id="text2868"
       y="171.06836"
       x="489.1701"
       style="font-size:24px;font-style:normal;font-variant:normal;font-weight:bold;font-stretch:normal;text-align:start;line-height:125%;writing-mode:lr-tb;text-anchor:start;fill:#000000;fill-opacity:1;stroke:none;stroke-width:1px;stroke-linecap:butt;stroke-linejoin:miter;stroke-opacity:1;font-family:Bitstream Vera Sans;-inkscape-font-specification:Bitstream Vera Sans Bold"
       xml:space="preserve"><tspan
         y="171.06836"
         x="489.1701"
         id="tspan2870"
         sodipodi:role="line">before</tspan><tspan
         y="201.06836"
         x="489.1701"
         sodipodi:role="line"
         id="tspan3648">alignment</tspan></text>
    <path
       d="M 439.8653,93.32354 L 439.8653,134.55334 L 470.31362,134.55334 L 470.31362,93.32354 L 439.8653,93.32354 z"
       style="opacity:1;fill:#ffff00;fill-opacity:1;fill-rule:evenodd;stroke:#000000;stroke-width:3;stroke-linecap:butt;stroke-linejoin:miter;marker:none;marker-start:none;marker-mid:none;marker-end:none;stroke-miterlimit:4;stroke-dasharray:none;stroke-dashoffset:0;stroke-opacity:1;visibility:visible;display:inline;overflow:visible;enable-background:accumulate"
       id="path2872"
       sodipodi:nodetypes="ccccc" />
    <path
       d="M 439.8653,159.29031 L 439.8653,200.5306 L 470.31362,200.5306 L 470.31362,159.29031 L 439.8653,159.29031 z"
       style="opacity:1;fill:#993399;fill-opacity:1;fill-rule:evenodd;stroke:#000000;stroke-width:3;stroke-linecap:butt;stroke-linejoin:miter;marker:none;marker-start:none;marker-mid:none;marker-end:none;stroke-miterlimit:4;stroke-dasharray:9, 9;stroke-dashoffset:0;stroke-opacity:1;visibility:visible;display:inline;overflow:visible;enable-background:accumulate"
       id="path2874"
       sodipodi:nodetypes="czccc" />
    <text
       xml:space="preserve"
       style="font-size:24px;font-style:normal;font-variant:normal;font-weight:bold;font-stretch:normal;text-align:start;line-height:125%;writing-mode:lr-tb;text-anchor:start;fill:#000000;fill-opacity:1;stroke:none;stroke-width:1px;stroke-linecap:butt;stroke-linejoin:miter;stroke-opacity:1;font-family:Bitstream Vera Sans;-inkscape-font-specification:Bitstream Vera Sans Bold"
       x="489.1701"
       y="238.60391"
       id="text3582"
       sodipodi:linespacing="125%"><tspan
         id="tspan3586"
         sodipodi:role="line"
         x="489.1701"
         y="238.60391">tracker-</tspan><tspan
         sodipodi:role="line"
         x="489.1701"
         y="268.60391"
         id="tspan3590">only fit</tspan></text>
    <path
       id="path3592"
       d="M 432.79773,247.07657 L 477.38118,247.07657"
       style="opacity:1;fill:none;fill-opacity:1;fill-rule:nonzero;stroke:#ff0000;stroke-width:3;stroke-linecap:butt;stroke-linejoin:miter;marker:none;marker-start:none;marker-mid:none;marker-end:none;stroke-miterlimit:4;stroke-dasharray:3, 3;stroke-dashoffset:0;stroke-opacity:1;visibility:visible;display:inline;overflow:visible;enable-background:accumulate" />
  </g>
</svg>
